<?xml version="1.0" standalone="no"?>
<!DOCTYPE svg PUBLIC "-//W3C//DTD SVG 20010904//EN"
 "http://www.w3.org/TR/2001/REC-SVG-20010904/DTD/svg10.dtd">
<svg version="1.0" xmlns="http://www.w3.org/2000/svg"
 width="400.000000pt" height="400.000000pt" viewBox="0 0 400.000000 400.000000"
 preserveAspectRatio="xMidYMid meet">
<metadata>
Created by potrace 1.14, written by Peter Selinger 2001-2017
</metadata>
<g transform="translate(0.000000,400.000000) scale(0.100000,-0.100000)"
fill="#000000" stroke="none">
<path d="M1556 3942 c-3 -5 1 -9 9 -9 8 0 12 4 9 9 -3 4 -7 8 -9 8 -2 0 -6 -4
-9 -8z"/>
<path d="M1641 3917 c-1 -10 -6 -15 -11 -12 -6 4 -10 3 -9 -2 4 -22 -3 -34
-18 -32 -10 1 -26 -1 -35 -5 -9 -4 -25 -3 -36 3 -15 8 -23 7 -32 -4 -8 -10
-21 -13 -33 -9 -12 4 -17 2 -13 -4 4 -7 -1 -9 -14 -7 -11 2 -20 0 -20 -6 0
-12 -21 -7 -38 9 -12 11 -18 10 -33 -4 -11 -10 -22 -14 -26 -11 -4 4 2 13 12
21 15 11 16 14 4 21 -8 5 -11 5 -7 0 4 -4 0 -14 -9 -20 -15 -11 -15 -15 -4
-29 11 -13 11 -16 0 -18 -30 -3 -35 -4 -57 -17 -13 -7 -26 -10 -30 -7 -3 3 1
6 8 6 7 0 11 3 7 6 -3 3 -23 -7 -43 -22 -21 -16 -35 -23 -30 -16 4 6 2 12 -4
12 -6 0 -13 -7 -16 -15 -5 -11 -10 -13 -19 -5 -6 5 -15 7 -18 3 -4 -3 -7 -1
-7 5 0 7 -5 12 -11 12 -8 0 -8 -5 1 -15 7 -8 17 -12 23 -8 6 3 7 1 3 -6 -4 -6
-12 -9 -17 -6 -5 4 -9 2 -9 -2 0 -10 -70 -49 -82 -45 -4 1 -8 -2 -8 -8 0 -5
-6 -10 -14 -10 -8 0 -16 -5 -18 -12 -3 -8 -11 -5 -24 8 -15 15 -23 17 -32 10
-39 -37 -44 -39 -54 -25 -8 11 -9 10 -4 -3 3 -10 1 -18 -3 -18 -5 0 -12 -7
-15 -16 -4 -12 0 -11 20 5 14 11 32 17 40 14 8 -3 21 0 29 7 9 7 17 11 20 9 2
-3 -11 -17 -30 -32 -19 -15 -35 -24 -35 -18 0 5 6 12 13 14 6 3 7 6 1 6 -5 1
-19 -6 -30 -15 -10 -8 -13 -13 -7 -9 9 4 11 1 7 -10 -5 -12 -10 -13 -17 -6
-15 15 -24 14 -31 -5 -5 -14 -4 -15 9 -4 8 7 15 9 15 4 0 -11 -20 -42 -20 -32
0 13 -40 -26 -40 -39 0 -12 -13 -17 -32 -14 -5 0 -8 -8 -8 -19 0 -11 -5 -20
-11 -20 -5 0 -7 5 -3 12 4 7 3 8 -4 4 -6 -4 -9 -13 -6 -21 3 -7 -3 -22 -15
-31 -11 -10 -18 -21 -15 -26 3 -4 0 -8 -5 -8 -6 0 -10 -3 -10 -7 3 -20 -2 -34
-11 -28 -5 3 -11 1 -11 -4 -1 -6 -3 -15 -4 -21 -1 -5 -3 -15 -4 -21 0 -5 -5
-8 -10 -4 -6 3 -10 -3 -9 -12 0 -10 -3 -29 -7 -43 -8 -30 -16 -70 -17 -89 -1
-10 -5 -8 -15 5 -12 16 -11 19 4 26 15 5 15 7 2 7 -9 1 -18 -2 -22 -5 -6 -7
13 -54 22 -54 3 0 6 -15 6 -34 0 -19 -3 -32 -8 -29 -4 2 -7 -1 -7 -6 0 -6 4
-11 9 -11 5 0 11 -12 14 -26 l5 -26 -23 27 c-16 22 -24 25 -30 15 -5 -9 -4
-11 3 -6 7 4 17 -3 24 -18 6 -14 16 -26 22 -26 5 0 1 -7 -10 -15 -18 -15 -18
-15 0 -8 13 4 17 3 13 -4 -4 -6 -1 -13 5 -16 10 -3 10 -9 1 -25 -11 -18 -10
-20 4 -15 11 4 14 3 9 -5 -4 -7 -3 -12 3 -12 5 0 12 -8 15 -18 11 -33 128 -47
476 -56 209 -6 198 -5 175 -22 -11 -8 -30 -24 -43 -34 -12 -11 -26 -20 -31
-20 -5 0 -11 -4 -13 -8 -7 -17 -140 -111 -151 -107 -7 2 -30 7 -52 10 -99 14
-115 18 -115 29 0 21 -55 75 -91 89 -131 54 -266 -80 -214 -211 29 -72 90
-108 174 -103 30 2 86 31 102 53 5 8 105 1 120 -8 3 -2 37 -6 75 -9 l69 -5 90
70 c50 39 97 76 105 83 9 7 42 32 75 57 33 25 62 47 65 50 3 3 20 16 38 29 30
21 36 22 82 11 30 -7 47 -16 43 -23 -3 -6 -1 -7 5 -3 7 4 18 3 26 -1 10 -6
-27 -40 -136 -123 -83 -63 -156 -119 -162 -125 -6 -5 -46 -36 -89 -68 -66 -49
-83 -57 -110 -53 -18 2 -54 8 -82 12 -27 3 -59 8 -70 10 -11 3 -53 9 -93 15
l-72 10 -76 -58 c-42 -32 -81 -56 -87 -54 -130 42 -248 -60 -223 -193 17 -90
131 -151 218 -117 58 22 108 96 108 159 0 22 11 36 50 65 44 33 56 37 90 32
22 -3 57 -7 78 -10 21 -3 47 -7 57 -9 11 -2 43 -7 70 -10 28 -4 62 -9 77 -12
26 -5 65 19 183 113 6 5 57 44 115 88 58 44 107 82 110 85 3 3 41 32 85 65 44
32 82 61 85 64 3 4 14 11 26 17 17 10 25 7 57 -27 20 -21 37 -41 37 -46 0 -9
-26 -30 -130 -109 -36 -27 -69 -52 -75 -56 -202 -158 -630 -472 -639 -469 -60
20 -145 1 -183 -42 -72 -81 -46 -215 50 -261 47 -22 99 -20 147 4 50 26 78 66
87 128 8 47 12 52 83 106 41 31 88 67 104 79 16 12 153 115 305 229 152 114
281 211 286 215 17 14 64 43 68 43 4 0 7 -21 7 -47 -1 -56 0 -55 -18 -41 -15
12 -16 11 -3 -4 15 -20 35 -14 27 8 -3 7 -1 16 4 19 6 4 10 -2 10 -13 0 -17
-34 -48 -171 -152 -25 -19 -61 -47 -80 -62 -19 -15 -85 -66 -146 -113 -78 -60
-114 -93 -115 -108 -2 -25 -5 -49 -8 -57 0 -3 -3 -25 -6 -50 -2 -24 -7 -60
-10 -80 -2 -19 -7 -51 -10 -70 -2 -19 -6 -44 -8 -55 -3 -21 -19 -23 -89 -11
-137 25 -234 -136 -154 -255 77 -116 270 -77 292 59 5 26 19 48 50 77 34 31
45 49 48 80 3 22 13 100 23 172 l18 132 68 53 c38 29 77 60 88 68 10 8 31 24
46 35 15 11 32 25 38 30 18 16 134 95 140 95 14 0 4 -29 -11 -33 -17 -4 -17
-5 0 -6 11 -1 17 -9 17 -23 0 -19 -2 -20 -10 -8 -6 9 -10 10 -10 3 0 -6 5 -15
10 -18 6 -3 10 -19 10 -34 0 -21 -10 -36 -37 -57 -21 -16 -43 -33 -49 -39 -6
-5 -26 -21 -44 -35 -42 -32 -149 -116 -177 -141 -13 -10 -23 -27 -24 -36 0
-10 -2 -27 -4 -38 -2 -11 -9 -60 -15 -110 -7 -59 -16 -93 -26 -98 -52 -29 -86
-98 -79 -158 11 -89 64 -140 149 -144 64 -2 96 8 130 44 24 25 60 113 51 123
-2 2 -6 16 -9 32 -6 31 -51 96 -67 96 -6 0 -8 14 -5 33 3 17 8 60 12 95 7 65
8 67 99 134 6 4 24 18 40 31 17 12 37 28 45 34 13 10 16 8 17 -8 2 -16 -3 -19
-20 -14 -22 5 -22 5 1 -6 12 -7 22 -16 22 -21 0 -5 -10 -4 -22 2 -22 11 -22
10 -4 -4 11 -9 24 -16 29 -16 4 0 5 -5 1 -11 -4 -8 -9 -7 -15 2 -7 11 -9 10
-9 -3 0 -9 5 -18 11 -20 5 -2 11 -26 13 -53 1 -28 8 -70 15 -95 13 -45 21 -81
24 -112 1 -9 4 -15 8 -12 4 2 9 -3 12 -11 4 -10 1 -12 -11 -9 -9 3 -7 -1 6 -8
12 -8 19 -17 16 -21 -4 -4 -1 -7 6 -7 7 0 11 -3 7 -6 -3 -4 1 -13 9 -21 8 -8
12 -19 8 -24 -3 -5 0 -8 8 -7 7 2 12 -3 10 -10 -1 -8 1 -11 6 -8 4 2 23 -8 41
-24 63 -55 187 -88 314 -84 186 7 322 72 348 166 14 52 2 130 -27 172 -11 16
-9 25 17 63 61 88 73 144 38 181 -20 22 -18 42 4 42 23 0 49 59 43 93 -24 135
-17 166 51 201 69 34 88 59 87 111 -1 43 -40 135 -56 135 -5 0 -7 4 -4 9 3 5
-1 11 -9 15 -8 3 -15 13 -15 21 0 10 -5 13 -12 9 -8 -5 -9 -2 -5 9 3 9 3 16
-1 16 -20 -3 -31 3 -37 21 -4 11 -11 18 -16 15 -5 -4 -10 -1 -10 4 -1 6 -2 15
-3 20 0 5 -5 13 -10 18 -6 5 -6 2 -1 -7 5 -8 -6 -1 -24 15 -56 53 -70 90 -63
175 11 147 6 292 -13 360 -9 36 -19 72 -21 80 -17 72 -106 262 -140 301 -8 8
-14 20 -14 26 0 6 -7 13 -15 17 -8 3 -15 10 -15 16 0 5 -20 31 -45 56 -24 26
-42 51 -38 57 3 6 2 7 -4 4 -5 -3 -20 4 -34 16 -13 12 -53 42 -89 66 -36 25
-68 49 -71 54 -3 5 -9 8 -13 7 -4 -1 -20 3 -36 10 -27 11 -36 27 -31 53 1 5
-3 6 -8 2 -6 -3 -7 -13 -4 -21 5 -14 3 -15 -14 -6 -11 6 -23 8 -27 5 -3 -3 -6
-1 -6 5 0 7 -9 12 -19 12 -11 0 -27 7 -35 16 -12 12 -16 12 -16 2 -1 -8 -6 -6
-15 6 -8 11 -15 14 -15 8 0 -16 -15 -15 -32 1 -7 8 -19 12 -27 9 -8 -3 -11 0
-8 5 3 5 0 10 -8 10 -8 0 -11 -5 -8 -10 4 -7 -1 -8 -13 -3 -23 10 -45 13 -98
15 -32 1 -37 4 -32 19 5 15 4 15 -6 2 -14 -16 -52 -24 -42 -9 3 5 0 9 -5 9 -6
0 -11 -5 -11 -11 0 -5 -4 -8 -10 -4 -5 3 -7 13 -4 23 5 16 5 16 -6 0 -13 -21
-70 -25 -70 -5 0 8 -3 7 -10 -3 -5 -8 -12 -11 -16 -7 -4 4 -14 1 -22 -6 -13
-10 -14 -9 -10 3 3 8 13 14 22 14 22 -2 20 3 -5 17 -12 6 -19 7 -16 2 7 -11
-32 -47 -40 -39 -3 3 0 12 7 20 6 9 10 21 7 28 -3 8 -6 6 -6 -5z m-268 -80 c3
-8 -3 -14 -15 -14 -16 -2 -17 1 -8 13 15 17 17 17 23 1z m-438 -186 c-3 -6
-14 -11 -23 -11 -15 1 -15 2 2 15 21 16 32 13 21 -4z m-275 -1465 c18 -22 8
-59 -20 -73 -26 -13 -43 -5 -60 27 -21 40 50 81 80 46z m380 -370 c18 -22 8
-59 -20 -73 -26 -13 -43 -5 -60 27 -21 40 50 81 80 46z m763 -457 c19 -27 11
-54 -19 -68 -42 -19 -83 39 -51 74 18 21 54 18 70 -6z"/>
<path d="M1777 3913 c4 -10 2 -14 -5 -9 -6 3 -13 2 -16 -3 -4 -5 2 -8 11 -7
19 3 32 36 14 36 -6 0 -7 -7 -4 -17z"/>
<path d="M1845 3919 c-6 -8 -4 -10 5 -4 10 6 12 4 6 -11 -6 -15 -5 -17 5 -6 9
9 10 15 2 23 -8 8 -13 7 -18 -2z"/>
<path d="M1953 3915 c0 -8 4 -12 9 -9 5 3 6 10 3 15 -9 13 -12 11 -12 -6z"/>
<path d="M1535 3910 c6 -10 3 -12 -13 -8 -12 4 -20 2 -16 -3 7 -12 31 -12 39
0 3 5 0 13 -6 17 -8 5 -9 3 -4 -6z"/>
<path d="M1580 3911 c0 -7 -5 -9 -12 -5 -7 5 -8 3 -3 -5 5 -9 10 -10 18 -2 6
6 8 14 4 18 -4 3 -7 1 -7 -6z"/>
<path d="M1596 3893 c-6 -14 -5 -15 5 -6 7 7 10 15 7 18 -3 3 -9 -2 -12 -12z"/>
<path d="M1916 3899 c2 -4 -2 -10 -8 -12 -8 -4 -7 -6 3 -6 9 -1 19 5 22 12 3
8 -1 14 -9 14 -7 0 -11 -4 -8 -8z"/>
<path d="M2036 3893 c-6 -14 -5 -15 5 -6 7 7 10 15 7 18 -3 3 -9 -2 -12 -12z"/>
<path d="M1455 3891 c6 -11 3 -13 -13 -9 -15 4 -19 2 -15 -8 3 -9 10 -11 21
-5 10 4 22 6 29 4 6 -2 15 1 19 8 4 8 3 9 -5 5 -6 -4 -19 -2 -28 6 -14 11 -16
11 -8 -1z"/>
<path d="M1546 3882 c-3 -5 1 -9 9 -9 8 0 12 4 9 9 -3 4 -7 8 -9 8 -2 0 -6 -4
-9 -8z"/>
<path d="M1996 3878 c3 -5 10 -6 15 -3 13 9 11 12 -6 12 -8 0 -12 -4 -9 -9z"/>
<path d="M1394 3868 c3 -15 26 -23 26 -8 0 6 -4 9 -9 6 -5 -4 -12 -1 -14 4 -3
6 -4 5 -3 -2z"/>
<path d="M1213 3849 c-2 -23 3 -25 10 -4 4 8 3 16 -1 19 -4 3 -9 -4 -9 -15z"/>
<path d="M1290 3860 c-9 -6 -10 -10 -3 -10 6 0 15 5 18 10 8 12 4 12 -15 0z"/>
<path d="M2156 3847 c3 -10 9 -15 12 -12 3 3 0 11 -7 18 -10 9 -11 8 -5 -6z"/>
<path d="M1179 3848 c-5 -18 -6 -38 -1 -34 7 8 12 36 6 36 -2 0 -4 -1 -5 -2z"/>
<path d="M1270 3829 c0 -5 5 -7 10 -4 6 3 10 1 10 -4 0 -6 5 -11 11 -11 8 0 8
5 -1 15 -14 17 -30 20 -30 4z"/>
<path d="M1110 3826 c0 -2 7 -7 16 -10 8 -3 12 -2 9 4 -6 10 -25 14 -25 6z"/>
<path d="M1210 3814 c-14 -7 -21 -13 -16 -14 5 0 3 -8 -5 -17 -7 -10 0 -6 15
10 22 22 31 25 46 17 11 -6 20 -8 20 -6 0 17 -38 23 -60 10z"/>
<path d="M2217 3819 c7 -7 15 -10 18 -7 3 3 -2 9 -12 12 -14 6 -15 5 -6 -5z"/>
<path d="M1154 3801 c3 -5 -1 -12 -10 -15 -9 -4 -14 -9 -11 -12 3 -3 15 1 27
9 18 12 19 15 5 21 -9 3 -14 2 -11 -3z"/>
<path d="M1110 3790 c-9 -6 -10 -10 -3 -10 6 0 15 5 18 10 8 12 4 12 -15 0z"/>
<path d="M1035 3781 c-3 -5 0 -13 6 -17 8 -4 7 -9 -2 -15 -7 -4 -10 -11 -6
-16 12 -11 27 19 17 33 -6 6 -7 14 -3 17 3 4 4 7 0 7 -3 0 -8 -4 -12 -9z"/>
<path d="M1070 3779 c0 -5 5 -7 10 -4 6 3 10 8 10 11 0 2 -4 4 -10 4 -5 0 -10
-5 -10 -11z"/>
<path d="M1058 3727 c-17 -21 -18 -21 -32 -4 -13 17 -14 17 -19 -2 -2 -10 -15
-24 -27 -31 -20 -11 -21 -10 -16 12 3 12 3 17 0 10 -3 -6 -10 -9 -16 -6 -6 4
-5 -3 1 -15 10 -17 16 -19 31 -11 10 6 22 15 25 20 3 6 11 10 16 10 6 0 7 -5
3 -11 -5 -8 -1 -8 12 0 29 16 54 37 54 45 0 13 -15 5 -32 -17z"/>
<path d="M915 3720 c-3 -5 -1 -10 4 -10 6 0 11 5 11 10 0 6 -2 10 -4 10 -3 0
-8 -4 -11 -10z"/>
<path d="M2456 3687 c3 -10 9 -15 12 -12 3 3 0 11 -7 18 -10 9 -11 8 -5 -6z"/>
<path d="M846 3682 c-3 -5 1 -9 9 -9 8 0 12 4 9 9 -3 4 -7 8 -9 8 -2 0 -6 -4
-9 -8z"/>
<path d="M789 3623 c-13 -16 -12 -17 4 -4 9 7 17 15 17 17 0 8 -8 3 -21 -13z"/>
<path d="M797 3583 c3 -7 6 -13 8 -13 2 0 5 6 8 13 3 8 -1 14 -8 14 -7 0 -11
-6 -8 -14z"/>
<path d="M758 3563 c-7 -16 -12 -32 -12 -38 -2 -22 -29 -42 -57 -40 -16 1 -29
-2 -29 -8 0 -5 12 -6 27 -2 23 5 25 4 14 -9 -8 -9 -10 -16 -7 -16 4 0 19 14
33 31 20 23 28 27 34 17 7 -10 9 -10 10 2 1 8 1 18 0 23 0 4 4 7 11 7 6 0 8 3
5 6 -4 4 -13 1 -22 -6 -19 -15 -19 -10 -2 24 8 14 18 22 22 18 5 -4 5 -1 1 6
-10 18 -15 15 -28 -15z"/>
<path d="M720 3569 c0 -5 -6 -7 -12 -3 -7 4 -9 3 -5 -1 13 -15 36 -14 30 1 -6
17 -13 18 -13 3z"/>
<path d="M780 3556 c0 -2 7 -6 15 -10 8 -3 15 -1 15 4 0 6 -7 10 -15 10 -8 0
-15 -2 -15 -4z"/>
<path d="M676 3517 c3 -10 9 -15 12 -12 3 3 0 11 -7 18 -10 9 -11 8 -5 -6z"/>
<path d="M657 3444 c6 -15 23 -19 23 -5 0 5 -7 11 -14 14 -10 4 -13 1 -9 -9z"/>
<path d="M683 3419 c-33 -21 -43 -39 -22 -39 5 0 8 4 4 9 -3 5 3 12 14 16 11
3 25 12 31 20 16 20 11 19 -27 -6z"/>
<path d="M633 3415 c0 -8 4 -12 9 -9 4 3 8 9 8 15 0 5 -4 9 -8 9 -5 0 -9 -7
-9 -15z"/>
<path d="M630 3385 c0 -6 5 -16 11 -22 8 -8 4 -15 -12 -27 -13 -9 -21 -16 -17
-16 3 0 15 -3 25 -6 13 -4 14 -3 5 4 -11 7 -8 14 15 32 15 13 20 20 11 17 -11
-4 -21 0 -27 11 -6 9 -11 12 -11 7z"/>
<path d="M600 3348 c-10 -21 -10 -21 3 -6 8 10 18 14 22 10 5 -4 5 -1 1 6 -10
17 -14 15 -26 -10z"/>
<path d="M586 3298 c3 -4 11 -5 19 -1 21 7 19 12 -4 10 -11 0 -18 -5 -15 -9z"/>
<path d="M576 3277 c3 -10 9 -15 12 -12 3 3 0 11 -7 18 -10 9 -11 8 -5 -6z"/>
<path d="M555 3260 c-3 -5 -1 -10 4 -10 6 0 11 5 11 10 0 6 -2 10 -4 10 -3 0
-8 -4 -11 -10z"/>
<path d="M586 3247 c-16 -17 -17 -19 -3 -14 18 7 24 -8 7 -16 -6 -3 -5 -4 2
-3 7 1 14 15 15 29 1 15 1 27 0 26 -1 0 -11 -10 -21 -22z"/>
<path d="M556 3193 c-6 -14 -5 -15 5 -6 7 7 10 15 7 18 -3 3 -9 -2 -12 -12z"/>
<path d="M530 3121 c0 -6 4 -13 10 -16 6 -3 7 1 4 9 -7 18 -14 21 -14 7z"/>
<path d="M560 3119 c0 -5 5 -7 10 -4 6 3 10 8 10 11 0 2 -4 4 -10 4 -5 0 -10
-5 -10 -11z"/>
<path d="M574 3095 c-3 -8 -4 -20 -1 -27 3 -7 6 -3 6 10 1 15 5 21 13 16 7 -4
8 -3 4 4 -10 16 -15 15 -22 -3z"/>
<path d="M593 2935 c0 -8 4 -12 9 -9 5 3 6 10 3 15 -9 13 -12 11 -12 -6z"/>
<path d="M1986 2378 c3 -5 10 -6 15 -3 13 9 11 12 -6 12 -8 0 -12 -4 -9 -9z"/>
<path d="M2000 2100 c-12 -7 -10 -9 7 -7 12 0 19 5 17 9 -6 10 -6 10 -24 -2z"/>
<path d="M2035 2020 c3 -5 8 -10 11 -10 2 0 4 5 4 10 0 6 -5 10 -11 10 -5 0
-7 -4 -4 -10z"/>
<path d="M2013 1731 c0 -11 5 -18 9 -15 4 3 5 11 1 19 -7 21 -12 19 -10 -4z"/>
<path d="M2024 1678 c-4 -6 -3 -8 4 -4 5 3 13 0 15 -6 3 -8 6 -6 6 5 1 19 -14
23 -25 5z"/>
<path d="M2026 1621 c-4 -5 3 -7 14 -4 23 6 26 13 6 13 -8 0 -17 -4 -20 -9z"/>
<path d="M2060 1570 c0 -5 -7 -7 -15 -4 -8 4 -15 2 -15 -4 0 -14 33 -8 38 6 2
7 1 12 -2 12 -3 0 -6 -4 -6 -10z"/>
<path d="M2066 1522 c-3 -5 1 -9 9 -9 8 0 15 4 15 9 0 4 -4 8 -9 8 -6 0 -12
-4 -15 -8z"/>
<path d="M2055 1489 c-4 -6 -5 -12 -2 -15 2 -3 7 2 10 11 7 17 1 20 -8 4z"/>
<path d="M2076 1442 c-3 -5 1 -9 9 -9 8 0 12 4 9 9 -3 4 -7 8 -9 8 -2 0 -6 -4
-9 -8z"/>
<path d="M1174 1021 c-7 -5 -12 -267 -5 -316 1 -11 50 -16 52 -5 1 3 2 29 3
59 2 38 8 58 20 67 32 23 45 7 48 -64 3 -63 4 -67 28 -67 24 1 25 3 28 81 2
61 -1 84 -12 93 -23 19 -56 21 -87 5 l-29 -14 3 64 c1 36 0 73 -3 82 -7 18
-31 26 -46 15z"/>
<path d="M1787 1022 c-16 -3 -17 -17 -15 -165 l3 -161 25 -1 c20 0 26 6 28 30
5 46 17 49 38 10 10 -19 23 -36 29 -36 66 -9 68 -6 25 57 l-31 44 33 28 c31
28 31 30 11 40 -17 9 -27 6 -62 -19 l-41 -31 0 100 c0 103 -4 113 -43 104z"/>
<path d="M933 1002 c-18 -3 -23 -10 -23 -34 0 -28 2 -30 30 -25 17 4 32 2 36
-5 4 -6 7 -62 7 -124 -1 -104 1 -113 19 -117 40 -11 43 -2 43 126 l-1 122 38
-1 c34 -2 38 1 38 21 0 13 -5 27 -11 31 -12 7 -138 11 -176 6z"/>
<path d="M2018 999 c-10 -5 -13 -40 -12 -141 1 -73 2 -140 3 -149 1 -14 13
-16 74 -14 43 2 86 9 104 19 106 54 103 223 -4 269 -42 17 -144 28 -165 16z
m162 -86 c48 -62 12 -147 -67 -158 l-43 -6 -1 58 c-1 67 2 126 6 133 2 3 22 4
44 2 29 -3 47 -12 61 -29z"/>
<path d="M2983 993 c-8 -23 -58 -161 -88 -240 -16 -43 -19 -63 -11 -66 33 -11
46 9 100 159 31 85 56 157 56 159 0 14 -51 3 -57 -12z"/>
<path d="M1417 964 c-12 -13 -8 -42 8 -48 25 -9 46 5 43 28 -3 21 -37 34 -51
20z"/>
<path d="M767 850 c-43 -26 -77 -52 -76 -56 2 -5 32 -26 68 -47 109 -64 101
-62 101 -25 0 28 -6 37 -35 52 l-35 19 35 24 c27 18 35 31 35 53 0 17 -3 30
-7 29 -5 0 -43 -22 -86 -49z"/>
<path d="M3072 871 c-2 -24 4 -33 33 -51 l36 -22 -35 -25 c-28 -18 -36 -31
-36 -53 0 -33 11 -38 30 -15 7 8 16 15 21 15 16 0 129 73 124 80 -5 8 -160
100 -167 100 -2 0 -5 -13 -6 -29z"/>
<path d="M1606 869 c-22 -17 -26 -18 -26 -5 0 10 -9 16 -25 16 l-26 0 3 -92
c3 -77 6 -92 20 -94 23 -3 40 19 35 47 -6 39 11 86 34 92 26 7 36 -17 34 -84
-1 -27 1 -50 4 -50 40 -9 51 -5 52 20 4 86 -1 135 -13 148 -24 24 -63 25 -92
2z"/>
<path d="M2373 882 c-39 -6 -72 -56 -69 -103 4 -53 31 -80 87 -86 53 -5 74 7
65 35 -6 17 -13 20 -41 15 -58 -9 -40 13 25 33 64 19 65 20 50 58 -14 39 -61
58 -117 48z m54 -58 c2 -6 -4 -14 -14 -17 -10 -2 -26 -8 -35 -12 -21 -8 -25
14 -6 33 15 15 50 12 55 -4z"/>
<path d="M1410 790 c0 -52 4 -91 10 -91 46 -6 45 -8 48 89 l3 92 -31 0 -30 0
0 -90z"/>
<path d="M2520 874 c0 -5 51 -96 70 -124 9 -14 20 -34 24 -44 7 -19 7 -19 20
0 7 10 31 53 54 95 l41 76 -33 1 c-29 1 -34 -3 -50 -39 -20 -45 -21 -45 -44 3
-14 26 -23 33 -49 35 -18 1 -33 0 -33 -3z"/>
<path d="M928 558 c-8 -13 -13 -40 -11 -60 3 -29 0 -38 -12 -38 -8 0 -15 -4
-15 -8 0 -4 26 -8 58 -9 58 -1 59 0 10 11 -23 5 -28 12 -28 35 0 15 9 38 20
51 18 21 19 40 1 40 -5 0 -15 -10 -23 -22z"/>
<path d="M1400 536 c-5 -14 -14 -26 -20 -26 -6 0 -19 -15 -31 -32 -15 -25 -20
-28 -18 -13 2 33 0 45 -11 45 -5 0 -7 -14 -3 -32 8 -42 9 -44 29 -27 10 8 19
13 21 12 1 -2 6 -3 11 -3 4 0 1 4 -6 9 -10 6 -9 11 4 22 11 9 15 9 10 2 -9
-16 12 -56 26 -47 7 4 6 9 -2 14 -13 8 -3 60 11 60 12 0 11 27 -1 35 -6 3 -14
-5 -20 -19z"/>
<path d="M1546 538 c-9 -12 -16 -32 -16 -45 0 -12 -5 -25 -10 -28 -7 -4 -9 3
-6 19 4 21 1 25 -15 23 -27 -4 -41 -21 -33 -40 9 -25 26 -20 20 6 l-6 22 12
-23 c8 -15 17 -21 30 -16 11 3 20 0 24 -10 9 -23 19 -20 32 8 8 19 8 27 -2 35
-7 6 -15 9 -17 6 -3 -2 -5 5 -6 15 -1 11 3 23 9 26 8 5 9 1 5 -10 -4 -10 -3
-15 3 -11 6 3 10 12 10 20 0 24 -18 26 -34 3z"/>
<path d="M1844 539 c-3 -6 -15 -9 -25 -6 -10 3 -23 -1 -30 -9 -8 -10 -8 -14 0
-14 6 0 11 -16 11 -35 0 -19 3 -35 8 -35 13 1 42 27 42 39 0 6 4 11 8 11 5 0
8 -10 8 -22 -1 -18 5 -22 31 -24 20 -1 37 5 45 15 11 14 11 14 -4 3 -10 -8
-19 -9 -22 -3 -4 5 1 14 10 19 9 5 14 14 10 20 -10 17 -34 3 -41 -25 -7 -29
-19 -23 -20 10 0 12 -6 21 -12 20 -7 -2 -13 4 -13 13 0 8 4 13 8 10 5 -3 9 1
9 9 0 18 -13 20 -23 4z m-8 -35 c-3 -9 -6 -22 -6 -30 0 -8 -4 -14 -10 -14 -5
0 -10 14 -10 30 0 21 5 30 16 30 11 0 14 -5 10 -16z"/>
<path d="M1032 509 c-21 -20 -29 -35 -25 -49 6 -22 28 -27 39 -9 4 8 9 7 15
-2 7 -11 13 -9 29 11 21 27 25 40 12 40 -5 0 -13 -12 -19 -27 l-11 -28 -1 37
c-1 31 3 37 22 40 21 3 20 4 -5 9 -20 4 -33 -1 -56 -22z m28 -10 c0 -16 -20
-49 -30 -49 -5 0 -8 9 -7 19 1 12 6 17 16 13 10 -4 13 -1 8 11 -3 9 -2 17 3
17 6 0 10 -5 10 -11z"/>
<path d="M1696 522 c-24 -12 -27 -18 -22 -45 8 -39 12 -43 30 -28 11 9 15 9
19 -1 4 -10 7 -10 18 1 9 9 9 11 2 7 -9 -5 -13 3 -13 28 0 28 4 35 23 38 21 3
21 4 -3 9 -14 3 -38 -1 -54 -9z m18 -29 c-8 -42 -24 -53 -24 -16 0 17 6 34 13
36 6 3 13 6 14 6 1 1 -1 -11 -3 -26z"/>
<path d="M2143 524 c-16 -12 -16 -13 -1 -14 12 0 16 -7 13 -22 -3 -13 -1 -29
4 -37 10 -15 31 -7 31 12 0 7 -4 6 -10 -3 -7 -11 -10 -6 -10 22 0 27 5 37 18
40 14 3 13 5 -5 10 -12 3 -30 0 -40 -8z"/>
<path d="M2268 505 c-2 -19 -1 -41 4 -48 9 -15 58 -18 76 -4 8 7 12 4 13 -9 0
-14 2 -15 6 -4 4 8 12 21 20 28 16 16 17 42 2 42 -5 0 -8 -4 -4 -9 3 -5 0 -13
-6 -17 -7 -4 -9 -3 -5 4 3 6 2 13 -4 17 -5 3 -10 0 -10 -7 0 -19 -27 -55 -34
-47 -10 9 5 40 15 33 5 -3 9 -1 9 5 0 31 -34 18 -45 -18 -5 -16 -10 -20 -15
-12 -11 20 1 61 19 62 12 0 11 2 -4 9 -31 13 -33 12 -37 -25z"/>
<path d="M2501 518 c-5 -13 -7 -26 -4 -30 7 -13 -25 -9 -33 4 -5 7 -3 8 6 3 9
-5 11 -4 6 3 -13 22 -26 12 -26 -18 0 -22 5 -30 18 -30 14 0 15 2 2 10 -13 8
-12 10 3 10 10 0 22 -11 27 -25 14 -37 20 -30 14 14 -3 23 -1 42 5 46 14 8 14
35 1 35 -6 0 -14 -10 -19 -22z"/>
<path d="M2692 523 c-7 -15 -9 -54 -3 -85 0 -5 9 -8 19 -7 10 0 12 3 5 6 -15
6 -17 59 -3 68 13 8 13 35 0 35 -5 0 -13 -8 -18 -17z"/>
<path d="M2839 531 c-5 -26 -2 -71 4 -71 5 0 5 -4 2 -10 -3 -5 1 -10 9 -10 17
0 22 15 8 24 -16 10 -6 51 12 50 9 -1 16 2 16 6 0 9 -49 20 -51 11z"/>
<path d="M1222 509 c5 -12 0 -14 -21 -11 -21 3 -27 -1 -28 -16 -1 -15 5 -19
24 -19 14 0 29 -7 34 -14 10 -15 12 -7 9 31 -1 14 -6 30 -12 35 -8 7 -9 5 -6
-6z"/>
<path d="M1257 498 c-7 -26 -1 -58 12 -58 20 1 43 31 36 47 -6 15 -8 15 -12 3
-13 -41 -17 -42 -23 -5 -5 38 -6 38 -13 13z"/>
<path d="M2650 508 c0 -7 5 -20 10 -28 8 -11 9 -9 8 13 -2 26 -18 40 -18 15z"/>
<path d="M2800 501 c0 -11 -5 -23 -11 -27 -8 -4 -9 0 -4 15 4 12 2 21 -4 21
-6 0 -11 -6 -11 -13 0 -8 -7 -14 -15 -14 -9 0 -14 6 -11 13 3 8 0 11 -10 7
-19 -7 -18 -53 2 -53 8 0 12 4 9 10 -3 5 9 9 29 8 19 -1 34 -6 33 -11 -1 -5 3
-11 8 -13 7 -3 9 11 7 36 -4 40 -22 57 -22 21z"/>
<path d="M1603 499 c-15 -15 -4 -49 16 -49 14 0 14 2 1 11 -12 8 -8 9 16 5 28
-4 31 -3 26 19 -2 14 -8 22 -13 19 -5 -3 -7 -9 -4 -14 3 -4 -3 -7 -12 -5 -10
2 -20 4 -23 4 -3 1 2 6 10 11 8 5 10 10 5 10 -6 0 -16 -5 -22 -11z"/>
<path d="M2003 503 c-15 -5 -18 -43 -4 -43 5 0 12 10 14 23 3 16 5 14 6 -9 1
-27 5 -32 26 -30 19 1 25 7 25 24 0 13 4 21 8 18 5 -3 9 1 9 9 0 25 -16 17
-37 -17 l-20 -33 0 33 c0 32 -3 35 -27 25z"/>
<path d="M2581 496 c-13 -15 -6 -56 8 -56 5 0 15 8 22 18 13 15 12 16 -3 3
-16 -12 -18 -11 -18 6 0 28 29 25 36 -4 4 -12 12 -23 20 -23 11 0 11 5 2 28
-7 15 -12 28 -13 28 0 1 -9 4 -21 8 -13 4 -26 1 -33 -8z"/>
<path d="M2913 496 c3 -6 -2 -21 -10 -31 -15 -19 -15 -19 -11 8 5 29 -6 37
-16 12 -10 -28 10 -56 28 -38 4 4 15 8 23 8 9 0 18 7 20 15 4 13 3 13 -6 0 -9
-12 -11 -11 -11 8 0 16 4 21 13 16 6 -4 8 -3 4 1 -12 14 -39 15 -34 1z"/>
<path d="M2973 503 c-15 -5 -18 -43 -4 -43 5 0 12 8 14 18 3 10 5 6 6 -10 1
-34 16 -36 31 -5 11 21 10 21 -4 3 -15 -19 -16 -18 -16 12 0 32 -4 35 -27 25z"/>
<path d="M2105 471 c0 -20 5 -27 17 -26 21 1 37 15 19 15 -8 0 -11 8 -9 18 3
12 -1 18 -11 19 -11 1 -16 -7 -16 -26z"/>
<path d="M2236 492 c-3 -5 -2 -22 3 -37 4 -19 10 -25 15 -17 4 6 2 20 -3 31
-8 14 -8 21 2 24 9 4 9 6 0 6 -6 1 -14 -3 -17 -7z"/>
<path d="M1113 473 c-7 -2 -13 -14 -13 -24 0 -25 16 -17 23 11 3 11 4 20 4 19
-1 0 -8 -3 -14 -6z"/>
</g>
</svg>
