<?xml version="1.0" standalone="no"?>
<!DOCTYPE svg PUBLIC "-//W3C//DTD SVG 20010904//EN"
 "http://www.w3.org/TR/2001/REC-SVG-20010904/DTD/svg10.dtd">
<svg version="1.0" xmlns="http://www.w3.org/2000/svg"
 width="400.000000pt" height="400.000000pt" viewBox="0 0 400.000000 400.000000"
 preserveAspectRatio="xMidYMid meet">

<g transform="translate(0.000000,400.000000) scale(0.100000,-0.100000)"
fill="#000000" stroke="none">
<path d="M1535 3855 c-462 -73 -838 -342 -911 -651 -20 -86 -14 -194 16 -281
20 -57 25 -64 58 -73 21 -6 131 -15 247 -20 559 -26 615 -33 778 -109 67 -31
103 -55 151 -103 108 -109 193 -256 164 -285 -18 -17 -12 -173 7 -173 9 0 15
-22 20 -71 6 -63 5 -74 -14 -100 -19 -26 -21 -37 -15 -109 5 -61 10 -78 19
-70 9 8 15 -19 23 -113 29 -304 114 -441 307 -491 167 -44 423 7 488 98 31 44
35 123 7 190 l-22 55 29 43 c59 87 68 143 31 180 -21 21 -21 21 -2 35 59 42
63 58 44 153 -5 27 -5 59 1 81 8 30 19 41 68 68 125 66 105 167 -70 347 -87
89 -118 134 -120 171 0 15 2 91 7 168 6 117 4 154 -11 220 -104 473 -398 760
-859 840 -107 18 -327 18 -441 0z"/>
<path d="M1170 860 l0 -160 25 0 c23 0 25 3 25 48 0 53 21 92 49 92 24 0 31
-19 31 -86 0 -51 1 -54 25 -54 24 0 25 2 25 73 0 59 -4 77 -18 90 -24 22 -70
22 -94 0 -17 -15 -18 -13 -18 70 0 86 0 87 -25 87 l-25 0 0 -160z"/>
<path d="M1780 860 l0 -160 25 0 c22 0 25 4 25 35 0 19 5 35 10 35 6 0 20 -16
31 -35 17 -27 27 -35 50 -35 l30 0 -31 44 c-16 25 -30 49 -30 54 0 6 12 19 27
30 23 17 25 22 14 36 -12 14 -17 13 -51 -14 -21 -17 -41 -30 -44 -30 -3 0 -6
45 -6 100 l0 100 -25 0 -25 0 0 -160z"/>
<path d="M920 976 c0 -21 6 -25 33 -28 l32 -3 3 -122 3 -123 24 0 25 0 0 125
0 125 35 0 c31 0 35 3 35 25 0 25 0 25 -95 25 -94 0 -95 0 -95 -24z"/>
<path d="M2010 850 l0 -150 73 0 c116 0 177 49 177 145 0 96 -71 155 -187 155
l-63 0 0 -150z m145 86 c26 -11 36 -24 46 -55 22 -74 -24 -131 -106 -131 l-35
0 0 93 c0 52 3 97 7 100 11 11 52 8 88 -7z"/>
<path d="M2981 973 c-17 -45 -101 -276 -101 -280 0 -3 10 -3 22 -1 19 2 31 25
74 143 29 77 53 146 53 153 2 24 -37 12 -48 -15z"/>
<path d="M1420 955 c-15 -18 -5 -35 20 -35 10 0 22 5 25 10 7 11 -12 40 -25
40 -4 0 -13 -7 -20 -15z"/>
<path d="M778 851 c-42 -25 -79 -49 -83 -52 -5 -6 145 -99 160 -99 3 0 5 11 5
24 0 17 -11 31 -36 47 -36 22 -37 23 -17 38 12 9 28 21 38 26 11 6 16 19 13
36 l-3 25 -77 -45z"/>
<path d="M3080 865 c0 -19 9 -31 36 -47 l37 -21 -37 -21 c-28 -16 -36 -27 -36
-49 l0 -28 58 32 c31 18 69 40 84 49 l28 17 -77 44 c-98 56 -93 55 -93 24z"/>
<path d="M1602 864 c-12 -8 -22 -10 -22 -5 0 6 -11 11 -25 11 -25 0 -25 -1
-25 -85 0 -84 0 -85 25 -85 23 0 25 3 25 48 0 57 22 95 53 90 20 -3 22 -10 25
-70 3 -65 4 -68 27 -68 24 0 25 2 25 74 0 54 -4 79 -16 90 -20 20 -63 20 -92
0z"/>
<path d="M2355 868 c-33 -19 -44 -41 -45 -84 0 -65 62 -108 123 -85 37 14 25
41 -18 41 -57 0 -48 17 19 40 54 18 63 24 59 41 -13 48 -90 74 -138 47z m82
-44 c3 -10 -45 -34 -68 -34 -11 0 -12 34 -2 44 11 11 66 3 70 -10z"/>
<path d="M1410 785 c0 -84 0 -85 25 -85 25 0 25 1 25 85 0 84 0 85 -25 85 -25
0 -25 -1 -25 -85z"/>
<path d="M2530 865 c0 -3 21 -41 46 -85 53 -91 44 -93 108 23 l37 67 -29 0
c-25 0 -32 -6 -46 -42 l-18 -43 -21 43 c-17 34 -26 42 -49 42 -15 0 -28 -2
-28 -5z"/>
<path d="M935 569 c-11 -16 -1 -19 13 -3 7 8 8 14 3 14 -5 0 -13 -5 -16 -11z"/>
<path d="M1403 535 c-3 -9 -3 -18 -1 -21 3 -3 8 4 11 16 6 23 -1 27 -10 5z"/>
<path d="M1547 543 c-3 -5 -8 -22 -11 -40 -7 -32 7 -55 18 -27 3 8 2 12 -4 9
-12 -8 -12 -8 -1 33 9 30 8 42 -2 25z"/>
<path d="M920 493 c-3 -29 -1 -48 3 -44 5 5 7 28 5 52 l-3 44 -5 -52z"/>
<path d="M1061 498 c0 -26 3 -49 7 -52 4 -2 6 12 4 32 -6 62 -10 69 -11 20z"/>
<path d="M1721 498 c0 -26 3 -49 7 -52 4 -2 6 12 4 32 -6 62 -10 69 -11 20z"/>
<path d="M1801 498 c0 -26 3 -49 7 -52 4 -2 6 12 4 32 -6 62 -10 69 -11 20z"/>
<path d="M2161 514 c0 -11 3 -14 6 -6 3 7 2 16 -1 19 -3 4 -6 -2 -5 -13z"/>
<path d="M1678 502 c-3 -9 -1 -26 3 -37 6 -15 8 -11 8 18 1 40 -4 48 -11 19z"/>
<path d="M1652 490 c0 -14 2 -19 5 -12 2 6 2 18 0 25 -3 6 -5 1 -5 -13z"/>
<path d="M2801 494 c0 -11 3 -14 6 -6 3 7 2 16 -1 19 -3 4 -6 -2 -5 -13z"/>
<path d="M1014 485 c-3 -8 -4 -20 -2 -27 3 -7 7 -1 10 15 6 29 1 36 -8 12z"/>
<path d="M1184 485 c-4 -9 -4 -19 0 -22 3 -4 6 2 7 13 0 18 1 18 9 -1 7 -16 9
-17 9 -3 1 23 -18 33 -25 13z"/>
<path d="M1257 480 c-3 -10 1 -24 7 -29 10 -8 11 -3 8 19 -5 35 -8 37 -15 10z"/>
<path d="M1356 485 c-9 -26 -7 -32 5 -12 6 10 9 21 6 23 -2 3 -7 -2 -11 -11z"/>
<path d="M1386 492 c-2 -4 -1 -14 5 -22 7 -12 9 -10 9 8 0 23 -5 28 -14 14z"/>
<path d="M1470 489 c0 -5 5 -7 10 -4 6 3 10 8 10 11 0 2 -4 4 -10 4 -5 0 -10
-5 -10 -11z"/>
<path d="M1502 480 c0 -14 2 -19 5 -12 2 6 2 18 0 25 -3 6 -5 1 -5 -13z"/>
<path d="M1904 485 c-3 -8 -4 -20 -2 -27 3 -7 7 -1 10 15 6 29 1 36 -8 12z"/>
<path d="M2022 475 c0 -16 2 -22 5 -12 2 9 2 23 0 30 -3 6 -5 -1 -5 -18z"/>
<path d="M2057 493 c-4 -3 -7 -13 -7 -22 1 -13 3 -13 11 2 11 19 8 33 -4 20z"/>
<path d="M2314 485 c-3 -8 -4 -20 -2 -27 3 -7 7 -1 10 15 6 29 1 36 -8 12z"/>
<path d="M2362 465 c0 -22 2 -33 5 -25 3 8 11 21 17 29 8 11 8 13 -1 8 -7 -4
-13 0 -16 10 -3 10 -5 0 -5 -22z"/>
<path d="M2584 485 c-3 -8 -4 -20 -2 -27 3 -7 7 -1 10 15 6 29 1 36 -8 12z"/>
<path d="M2771 484 c0 -11 3 -14 6 -6 3 7 2 16 -1 19 -3 4 -6 -2 -5 -13z"/>
<path d="M2841 484 c0 -11 3 -14 6 -6 3 7 2 16 -1 19 -3 4 -6 -2 -5 -13z"/>
<path d="M2880 476 c0 -14 4 -27 8 -30 5 -3 6 8 4 25 -5 35 -12 38 -12 5z"/>
<path d="M2992 475 c0 -16 2 -22 5 -12 2 9 2 23 0 30 -3 6 -5 -1 -5 -18z"/>
<path d="M1295 480 c-3 -5 -1 -10 4 -10 6 0 11 5 11 10 0 6 -2 10 -4 10 -3 0
-8 -4 -11 -10z"/>
<path d="M1322 470 c0 -14 2 -19 5 -12 2 6 2 18 0 25 -3 6 -5 1 -5 -13z"/>
<path d="M1563 464 c-6 -13 -7 -24 -3 -24 9 0 25 39 18 45 -2 2 -8 -7 -15 -21z"/>
<path d="M1601 474 c0 -11 3 -14 6 -6 3 7 2 16 -1 19 -3 4 -6 -2 -5 -13z"/>
<path d="M1990 479 c0 -5 5 -7 10 -4 6 3 10 8 10 11 0 2 -4 4 -10 4 -5 0 -10
-5 -10 -11z"/>
<path d="M2451 474 c0 -11 3 -14 6 -6 3 7 2 16 -1 19 -3 4 -6 -2 -5 -13z"/>
<path d="M2631 474 c0 -11 3 -14 6 -6 3 7 2 16 -1 19 -3 4 -6 -2 -5 -13z"/>
<path d="M2162 460 c0 -14 2 -19 5 -12 2 6 2 18 0 25 -3 6 -5 1 -5 -13z"/>
<path d="M2725 471 c-3 -5 -2 -12 3 -15 5 -3 9 1 9 9 0 17 -3 19 -12 6z"/>
</g>
</svg>
